<?xml version="1.0" encoding="UTF-8"?>
<svg width="1440" height="800" viewBox="0 0 1440 800" xmlns="http://www.w3.org/2000/svg">
  <!-- Main background -->
  <rect width="1440" height="800" fill="transparent"/>
  
  <!-- Grid pattern -->
  <pattern id="grid" x="0" y="0" width="40" height="40" patternUnits="userSpaceOnUse">
    <path d="M 40 0 L 0 0 0 40" fill="none" stroke="#26a69a" stroke-width="0.2" opacity="0.3"/>
  </pattern>
  <rect width="1440" height="800" fill="url(#grid)"/>
  
  <!-- Abstract shapes -->
  <!-- Main circle -->
  <circle cx="720" cy="400" r="200" fill="none" stroke="#26a69a" stroke-width="0.5" opacity="0.2"/>
  
  <!-- Secondary circles -->
  <circle cx="720" cy="400" r="300" fill="none" stroke="#7e57c2" stroke-width="0.4" opacity="0.15"/>
  <circle cx="720" cy="400" r="400" fill="none" stroke="#26a69a" stroke-width="0.3" opacity="0.1"/>
  
  <!-- Random small circles scattered throughout -->
  <g opacity="0.3">
    <circle cx="220" cy="300" r="3" fill="#26a69a"/>
    <circle cx="1120" cy="500" r="2" fill="#7e57c2"/>
    <circle cx="320" cy="150" r="2" fill="#26a69a"/>
    <circle cx="900" cy="650" r="2" fill="#26a69a"/>
    <circle cx="1300" cy="350" r="3" fill="#7e57c2"/>
    <circle cx="150" cy="550" r="2" fill="#26a69a"/>
    <circle cx="600" cy="700" r="3" fill="#7e57c2"/>
    <circle cx="900" cy="180" r="2" fill="#26a69a"/>
    <circle cx="1200" cy="650" r="3" fill="#7e57c2"/>
    <circle cx="420" cy="480" r="2" fill="#26a69a"/>
    <circle cx="740" cy="110" r="2" fill="#7e57c2"/>
    <circle cx="500" cy="220" r="2" fill="#26a69a"/>
    <circle cx="1050" cy="390" r="3" fill="#7e57c2"/>
    <circle cx="200" cy="700" r="2" fill="#26a69a"/>
    <circle cx="1000" cy="240" r="3" fill="#7e57c2"/>
    <circle cx="320" cy="550" r="2" fill="#26a69a"/>
    <circle cx="570" cy="600" r="2" fill="#7e57c2"/>
    <circle cx="1150" cy="150" r="3" fill="#26a69a"/>
    <circle cx="400" cy="320" r="2" fill="#7e57c2"/>
    <circle cx="800" cy="750" r="3" fill="#26a69a"/>
    <circle cx="280" cy="420" r="2" fill="#7e57c2"/>
    <circle cx="1250" cy="470" r="2" fill="#26a69a"/>
    <circle cx="950" cy="520" r="3" fill="#7e57c2"/>
    <circle cx="670" cy="180" r="2" fill="#26a69a"/>
    <circle cx="150" cy="330" r="2" fill="#7e57c2"/>
    <circle cx="480" cy="680" r="3" fill="#26a69a"/>
    <circle cx="1320" cy="280" r="2" fill="#7e57c2"/>
    <circle cx="360" cy="220" r="2" fill="#26a69a"/>
    <circle cx="720" cy="650" r="3" fill="#7e57c2"/>
    <circle cx="1100" cy="280" r="2" fill="#26a69a"/>
    <circle cx="450" cy="450" r="2" fill="#7e57c2"/>
    <circle cx="850" cy="120" r="3" fill="#26a69a"/>
    <circle cx="1200" cy="380" r="2" fill="#7e57c2"/>
    <circle cx="250" cy="600" r="2" fill="#26a69a"/>
    <circle cx="550" cy="150" r="3" fill="#7e57c2"/>
    <circle cx="1050" cy="680" r="2" fill="#26a69a"/>
    <circle cx="380" cy="350" r="2" fill="#7e57c2"/>
    <circle cx="900" cy="420" r="3" fill="#26a69a"/>
    <circle cx="600" cy="580" r="2" fill="#7e57c2"/>
  </g>
  
  <!-- Connecting lines -->
  <g opacity="0.15">
    <line x1="220" y1="300" x2="320" y2="150" stroke="#26a69a" stroke-width="0.4"/>
    <line x1="320" y1="150" x2="500" y2="220" stroke="#26a69a" stroke-width="0.4"/>
    <line x1="500" y1="220" x2="670" y2="180" stroke="#26a69a" stroke-width="0.4"/>
    <line x1="670" y1="180" x2="740" y2="110" stroke="#26a69a" stroke-width="0.4"/>
    <line x1="740" y1="110" x2="850" y2="120" stroke="#26a69a" stroke-width="0.4"/>
    <line x1="850" y1="120" x2="900" y2="180" stroke="#26a69a" stroke-width="0.4"/>
    <line x1="900" y1="180" x2="1000" y2="240" stroke="#26a69a" stroke-width="0.4"/>
    <line x1="1000" y1="240" x2="1100" y2="280" stroke="#26a69a" stroke-width="0.4"/>
    <line x1="1100" y1="280" x2="1200" y2="380" stroke="#26a69a" stroke-width="0.4"/>
    <line x1="1200" y1="380" x2="1320" y2="280" stroke="#26a69a" stroke-width="0.4"/>
    <line x1="1320" y1="280" x2="1300" y2="350" stroke="#26a69a" stroke-width="0.4"/>
    <line x1="1300" y1="350" x2="1250" y2="470" stroke="#26a69a" stroke-width="0.4"/>
    <line x1="1250" y1="470" x2="1120" y2="500" stroke="#26a69a" stroke-width="0.4"/>
    <line x1="1120" y1="500" x2="1050" y2="390" stroke="#26a69a" stroke-width="0.4"/>
    <line x1="1050" y1="390" x2="950" y2="520" stroke="#26a69a" stroke-width="0.4"/>
    <line x1="950" y1="520" x2="900" y2="650" stroke="#26a69a" stroke-width="0.4"/>
    <line x1="900" y1="650" x2="1050" y2="680" stroke="#26a69a" stroke-width="0.4"/>
    <line x1="1050" y1="680" x2="1200" y2="650" stroke="#26a69a" stroke-width="0.4"/>
  </g>
  
  <!-- Highlighted areas -->
  <g opacity="0.05">
    <circle cx="720" cy="400" r="150" fill="#26a69a"/>
    <circle cx="500" cy="300" r="80" fill="#7e57c2"/>
    <circle cx="900" cy="300" r="70" fill="#26a69a"/>
    <circle cx="600" cy="600" r="100" fill="#7e57c2"/>
    <circle cx="900" cy="550" r="90" fill="#26a69a"/>
  </g>
  
  <!-- Decorative hexagonal grid sections -->
  <path d="M200,200 L250,230 L250,290 L200,320 L150,290 L150,230 Z" fill="none" stroke="#7e57c2" stroke-width="0.3" opacity="0.2"/>
  <path d="M1200,250 L1250,280 L1250,340 L1200,370 L1150,340 L1150,280 Z" fill="none" stroke="#26a69a" stroke-width="0.3" opacity="0.2"/>
  <path d="M300,600 L350,630 L350,690 L300,720 L250,690 L250,630 Z" fill="none" stroke="#7e57c2" stroke-width="0.3" opacity="0.2"/>
  <path d="M1000,650 L1050,680 L1050,740 L1000,770 L950,740 L950,680 Z" fill="none" stroke="#26a69a" stroke-width="0.3" opacity="0.2"/>
  
  <!-- Cross points -->
  <g opacity="0.3">
    <path d="M300,200 L310,200 L310,190 L320,190 L320,200 L330,200 L330,210 L320,210 L320,220 L310,220 L310,210 L300,210 Z" fill="#26a69a"/>
    <path d="M1100,600 L1110,600 L1110,590 L1120,590 L1120,600 L1130,600 L1130,610 L1120,610 L1120,620 L1110,620 L1110,610 L1100,610 Z" fill="#7e57c2"/>
    <path d="M500,500 L510,500 L510,490 L520,490 L520,500 L530,500 L530,510 L520,510 L520,520 L510,520 L510,510 L500,510 Z" fill="#26a69a"/>
  </g>
  
  <!-- Abstract circuit-like patterns -->
  <g opacity="0.2">
    <path d="M100,400 L200,400 L250,450 L400,450 L450,400 L600,400" fill="none" stroke="#26a69a" stroke-width="0.5"/>
    <path d="M1300,500 L1200,500 L1150,450 L1000,450 L950,500 L800,500" fill="none" stroke="#7e57c2" stroke-width="0.5"/>
    <path d="M400,200 L450,250 L500,250 L550,300 L700,300" fill="none" stroke="#26a69a" stroke-width="0.5"/>
    <path d="M1000,650 L950,600 L900,600 L850,550 L700,550" fill="none" stroke="#7e57c2" stroke-width="0.5"/>
  </g>
</svg>